Looper.2012.BDRip.DivX.AC3-Atilla82.avi




Looper (2012)
 
http://www.imdb.com/title/tt1276104/


In 2074, when the mob wants to get rid of someone, 
the target is sent 30 years into the past, 
where a hired gun awaits. Someone like Joe, 
who one day learns the mob wants to 'close the loop' 
by transporting back Joe's future self.



Joseph Gordon-Levitt	 ...	Joe

Bruce Willis	 ...	Old Joe

Emily Blunt	 ...	Sara

Paul Dano	 ...	Seth

Noah Segan	 ...	Kid Blue

Piper Perabo	 ...	Suzie

Jeff Daniels	 ...	Abe

Pierce Gagnon	 ...	Cid






General
Complete name                            : Looper.2012.BDRip.DivX.AC3-Atilla82.avi
Format                                   : AVI
Format/Info                              : Audio Video Interleave
File size                                : 1.38 GiB
Duration                                 : 1h 58mn
Overall bit rate                         : 1 657 Kbps
Writing application                      : VirtualDubMod 1.5.10.2 (build 2540/release)
Writing library                          : VirtualDubMod build 2540/release

Video
ID                                       : 0
Format                                   : MPEG-4 Visual
Format settings, BVOP                    : 1
Format settings, QPel                    : No
Format settings, GMC                     : No warppoints
Format settings, Matrix                  : Default (H.263)
Muxing mode                              : Packed bitstream
Codec ID                                 : DX50
Codec ID/Hint                            : DivX 5
Duration                                 : 1h 58mn
Bit rate                                 : 1 199 Kbps
Width                                    : 720 pixels
Height                                   : 308 pixels
Display aspect ratio                     : 2.35:1
Frame rate                               : 23.976 fps
Color space                              : YUV
Chroma subsampling                       : 4:2:0
Bit depth                                : 8 bits
Scan type                                : Progressive
Compression mode                         : Lossy
Bits/(Pixel*Frame)                       : 0.226
Stream size                              : 1 020 MiB (72%)
Writing library                          : DivX 3330

Audio
ID                                       : 1
Format                                   : AC-3
Format/Info                              : Audio Coding 3
Mode extension                           : CM (complete main)
Format settings, Endianness              : Big
Codec ID                                 : 2000
Duration                                 : 1h 58mn
Bit rate mode                            : Constant
Bit rate                                 : 448 Kbps
Channel(s)                               : 6 channels
Channel positions                        : Front: L C R, Side: L R, LFE
Sampling rate                            : 48.0 KHz
Bit depth                                : 16 bits
Compression mode                         : Lossy
Stream size                              : 381 MiB (27%)
Alignment                                : Split accross interleaves
Interleave, duration                     : 42 ms (1.00 video frame)
Interleave, preload duration             : 500 ms




SCREENSHOTS 
http://www.pohrani.com/f/37/Pa/3H8gEqq9/looper2012bdripdivxac3-a.jpg




